<svg class="can-can__cymbal--hidden" viewBox="0 0 100 200" preserveAspectRatio="none" version="1.1" xmlns="http://www.w3.org/2000/svg">

  <!-- yellow -->
  <path fill="#edd609"  stroke="none" opacity="1" d="M 80.5 0 Q 84.5 -0.5 85 2.5 L 92 21.5 L 92 23.5 L 93 25.5 L 93 27.5 Q 92.4 33.6 95 36.5 L 95 38.5 L 96 41.5 L 96 43.5 L 97 46.5 L 97 48.5 L 97 60.5 L 96 61.5 L 96 63.5 L 98 71.5 L 97 75.5 L 99 82.5 L 98 85.5 L 100 88.5 L 100 90.5 L 100 111.5 Q 97.4 112.9 98 117.5 L 99 119.5 L 97 127.5 L 98 129.5 L 96 136.5 L 97 137.5 L 97 151.5 L 94 163.5 L 94 165.5 L 93 168.5 L 93 170.5 L 91 182.5 L 84 200 Q 79.4 201.3 78 198.5 L 79 196.5 L 78 192.5 Q 80.5 191 79 185.5 Q 77.8 182.3 74 183 L 63 169.5 L 60 163 Q 57 164.3 58 160.5 L 53 152.5 L 53 150.5 L 51 146.5 L 51 144.5 L 50 141.5 L 51 138.5 L 48 132.5 L 48 130.5 L 47 128.5 L 47 126.5 L 46 123.5 L 47 122.5 L 43 114.5 L 42 111.5 Q 44.3 110.2 41.5 109 L 33.5 108 Q 31.2 110.7 25.5 110 L 20 107 Q 18.3 103.6 19 96.5 L 22.5 92 L 30.5 91 L 35.5 93 L 38.5 92 L 40.5 92 Q 42.8 92.8 42 90.5 L 44 86.5 Q 41.5 85 45 83.5 L 47 77.5 L 47 75.5 L 48 72.5 L 48 70.5 L 49 68.5 L 48 67.5 L 50 63.5 L 51 60.5 L 51 58.5 L 52 54.5 L 51 53.5 L 54 48.5 L 55 46.5 L 55 44.5 L 57 39 L 59 39 L 59 36 Q 61.7 37.1 61 34.5 Q 66.3 24.8 74.5 18 Q 76.8 18.8 76 16.5 L 79 15.5 L 78 4.5 L 78 2.5 L 80.5 0 Z "/>

  <!-- lines -->
  <path fill="#000000"  stroke="none" opacity="1" d="M 80.5 0 Q 84.3 -0.8 85 1.5 L 92 18.5 L 96 41.5 L 96 47.5 L 98 54.5 L 98 64.5 L 100 75.5 L 100 124.5 L 99 125.5 L 98 145.5 L 97 146.5 L 92 181.5 L 83.5 200 Q 79.8 200.8 79 198.5 L 77 185.5 L 69.5 176 L 66 173.5 L 54 154.5 L 47 133.5 L 44 117.5 Q 43.1 110.9 38.5 108 Q 33.9 107.4 32.5 110 L 27.5 110 L 22 106.5 L 20 98.5 L 23.5 92 Q 26.2 89.2 32.5 90 Q 33.5 93 38.5 92 L 42 88.5 L 47 66.5 L 54 45.5 L 67 25 L 74 19.5 L 77 14.5 L 78 4.5 L 80.5 0 Z M 83 2 L 80 6 Q 81 14 78 18 Q 63 30 54 50 L 49 66 L 45 87 L 40 94 Q 34 95 32 92 L 24 94 L 23 97 L 24 106 L 28 108 Q 33 109 35 106 L 40 106 L 45 114 L 49 135 L 54 151 Q 62 170 78 183 L 80 188 L 81 197 L 84 198 L 88 188 L 92 172 L 94 153 L 96 146 L 97 122 L 98 121 L 98 106 L 97 105 L 97 96 L 98 95 L 98 80 L 97 79 L 96 55 L 92 35 L 92 29 L 86 8 L 83 2 Z "/>
</svg>
