<svg class="can-can__cymbal--hidden" viewBox="0 0 100 200" preserveAspectRatio="none" version="1.1" xmlns="http://www.w3.org/2000/svg">

  <!-- yellow -->
<path fill="#edd609"  stroke="none" opacity="1" d="M 17.5 0 Q 21.5 -0.5 22 2.5 L 21 4.5 L 22 8.5 Q 19.5 10 21 15.5 L 24 16.5 Q 23.3 18.8 25.5 18 Q 34.6 25.1 39 36 L 41 36 L 41 39 Q 43.7 37.9 43 40.5 L 46 45.5 L 46 47.5 L 48 50.5 L 48 54.5 L 50 59.5 L 49 61.5 L 51 64.5 L 50 65.5 L 52 69.5 L 53 71.5 L 52 73.5 L 54 76.5 L 54 78.5 Q 53.8 83.7 57 85.5 L 57 87.5 L 58 92 L 60.5 93 L 63.5 92 L 65.5 92 L 75.5 91 L 80 94.5 L 81 103.5 L 80 107 L 74.5 110 L 70.5 110 Q 67.5 107 60.5 108 L 57 110.5 L 57 112.5 L 55 116.5 L 56 117.5 L 54 119.5 L 55 120.5 L 53 124.5 L 52 127.5 L 52 129.5 L 51 131.5 L 52 132.5 L 50 136.5 L 49 140.5 L 49 142.5 L 48 145.5 L 48 147.5 L 46 151.5 Q 48.5 153 45 154.5 L 42 163 Q 39.3 161.9 40 164.5 L 26 183 Q 22.2 182.3 21 185.5 L 22 194.5 L 21 197.5 Q 23.3 198.8 20.5 200 Q 15.1 201.9 16 198.5 L 14 196.5 L 14 192.5 L 10 185.5 L 6 169.5 L 6 167.5 L 5 164.5 L 5 162.5 L 3 151.5 L 3 137.5 L 4 134.5 L 2 128.5 L 3 125.5 L 1 118.5 L 2 114.5 L 0 111.5 L 0 90.5 L 1 87.5 L 2 83.5 L 1 81.5 L 3 72.5 L 2 70.5 L 4 63.5 L 3 60.5 L 3 48.5 L 4 47.5 L 4 45.5 L 5 42.5 L 5 40.5 L 6 37.5 L 6 35.5 L 8 26.5 L 8 24.5 L 9 22.5 L 9 20.5 L 11 12.5 L 14 7.5 L 14 4.5 L 17.5 0 Z "/>
  <!-- lines -->

  <path fill="#000000"  stroke="none" opacity="1" d="M 16.5 0 Q 20.3 -0.8 21 1.5 L 23 14.5 L 30.5 24 L 34 26.5 L 46 45.5 L 53 66.5 L 56 82.5 Q 56.9 89.1 61.5 92 Q 66.1 92.6 67.5 90 L 72.5 90 L 78 93.5 L 80 101.5 L 77 108 Q 74.4 110.7 67.5 110 Q 66.5 107 61.5 108 L 58 111.5 L 53 133.5 L 46 154.5 L 33 175 L 26 180.5 L 23 185.5 L 22 195.5 L 19.5 200 Q 15.8 200.8 15 198.5 L 8 181.5 L 4 158.5 L 4 152.5 L 2 145.5 L 2 135.5 L 0 124.5 L 0 75.5 L 2 64.5 L 2 54.5 L 3 53.5 L 8 18.5 L 16.5 0 Z M 16 2 L 12 13 L 8 29 L 6 48 L 4 55 L 3 79 L 2 80 L 2 95 L 3 97 L 3 99 Q 5 104 2 106 L 2 121 L 3 122 L 4 146 L 8 166 L 8 172 L 14 193 L 18 198 L 20 195 Q 19 187 22 183 L 35 170 L 46 151 L 51 135 L 55 114 L 61 106 Q 67 105 69 108 L 76 106 L 77 104 L 76 95 L 73 92 Q 67 91 66 94 L 61 94 L 55 87 L 51 66 L 46 50 Q 38 30 22 18 L 20 13 L 19 4 L 16 2 Z "/>
</svg>
